<mxfile host="app.diagrams.net" modified="2024-01-08T18:43:28.455Z" agent="Mozilla/5.0 (Macintosh; Intel Mac OS X 10_15_7) AppleWebKit/537.36 (KHTML, like Gecko) Chrome/120.0.0.0 Safari/537.36" version="22.1.16" etag="HzaSNCcFq6QxWKXIenkk" type="github">
  <diagram name="Page-1" id="U15zE_Rikjae6jTqMJsv">
    <mxGraphModel>
      <root>
        <mxCell id="0" />
        <mxCell id="1" parent="0" />
      </root>
    </mxGraphModel>
  </diagram>
</mxfile>
